<svg xmlns="http://www.w3.org/2000/svg" xmlns:xlink="http://www.w3.org/1999/xlink" width="500" zoomAndPan="magnify" viewBox="0 0 375 374.999991" height="500" preserveAspectRatio="xMidYMid meet" version="1.0"><defs><clipPath id="00ea932fa1"><path d="M 307.683594 170 L 364.664062 170 L 364.664062 185 L 307.683594 185 Z M 307.683594 170 " clip-rule="nonzero"/></clipPath><clipPath id="9a4b99b492"><path d="M 10.3125 170 L 68 170 L 68 185 L 10.3125 185 Z M 10.3125 170 " clip-rule="nonzero"/></clipPath></defs><path fill="#0d292e" d="M 248.289062 224.300781 C 226.671875 250.550781 226.671875 272.9375 226.671875 272.9375 L 226.671875 288.125 L 148.308594 288.125 L 148.308594 272.9375 C 148.308594 272.9375 148.308594 250.550781 126.691406 224.300781 C 126.691406 224.300781 99.925781 193.078125 115.023438 152.585938 C 129.722656 113.171875 164.050781 100.746094 185.742188 100.746094 C 186.332031 100.746094 186.917969 100.757812 187.488281 100.773438 C 188.066406 100.757812 188.644531 100.746094 189.238281 100.746094 C 210.933594 100.746094 245.261719 113.175781 259.957031 152.585938 C 275.054688 193.078125 248.289062 224.300781 248.289062 224.300781 Z M 278.789062 181.511719 C 279.300781 170.050781 277.472656 158.636719 273.351562 147.59375 C 269.3125 136.75 263.714844 127.019531 256.714844 118.671875 C 250.425781 111.175781 243.011719 104.789062 234.683594 99.691406 C 227.359375 95.210938 219.445312 91.789062 211.152344 89.515625 C 203.832031 87.511719 196.253906 86.449219 189.238281 86.449219 C 188.652344 86.449219 188.066406 86.457031 187.488281 86.472656 C 186.914062 86.457031 186.328125 86.449219 185.742188 86.449219 C 178.726562 86.449219 171.148438 87.511719 163.828125 89.515625 C 155.539062 91.789062 147.621094 95.210938 140.296875 99.691406 C 131.96875 104.785156 124.554688 111.171875 118.265625 118.671875 C 111.269531 127.019531 105.671875 136.75 101.625 147.59375 C 97.507812 158.636719 95.679688 170.050781 96.195312 181.511719 C 96.601562 190.632812 98.488281 199.757812 101.800781 208.628906 C 107.128906 222.902344 114.421875 231.929688 115.714844 233.460938 C 125.339844 245.171875 129.84375 255.785156 131.925781 262.628906 C 133.820312 268.851562 134.011719 272.902344 134.011719 272.9375 L 134.011719 292.171875 C 134.011719 297.832031 138.597656 302.421875 144.257812 302.421875 L 230.726562 302.421875 C 236.386719 302.421875 240.96875 297.832031 240.96875 292.171875 L 240.96875 273.085938 C 240.992188 272.597656 241.238281 268.15625 243.441406 261.398438 C 245.578125 254.832031 250.0625 244.660156 259.269531 233.460938 C 260.558594 231.929688 267.851562 222.902344 273.179688 208.628906 C 276.492188 199.757812 278.378906 190.632812 278.789062 181.511719 " fill-opacity="1" fill-rule="nonzero"/><path fill="#0d292e" d="M 194.636719 7.386719 C 194.636719 3.4375 191.4375 0.238281 187.488281 0.238281 C 183.542969 0.238281 180.339844 3.4375 180.339844 7.386719 L 180.339844 57.199219 L 194.636719 57.199219 L 194.636719 7.386719 " fill-opacity="1" fill-rule="nonzero"/><g clip-path="url(#00ea932fa1)"><path fill="#0d292e" d="M 357.519531 170.265625 L 307.707031 170.265625 L 307.707031 184.566406 L 357.519531 184.566406 C 361.46875 184.566406 364.667969 181.363281 364.667969 177.417969 C 364.667969 173.46875 361.46875 170.265625 357.519531 170.265625 " fill-opacity="1" fill-rule="nonzero"/></g><path fill="#0d292e" d="M 277.554688 257.371094 L 267.445312 267.476562 L 302.664062 302.699219 C 305.457031 305.488281 309.980469 305.488281 312.773438 302.699219 C 315.566406 299.90625 315.566406 295.378906 312.773438 292.589844 L 277.554688 257.371094 " fill-opacity="1" fill-rule="nonzero"/><path fill="#0d292e" d="M 312.773438 62.242188 C 315.566406 59.449219 315.566406 54.925781 312.773438 52.132812 C 309.980469 49.339844 305.457031 49.339844 302.664062 52.132812 L 267.445312 87.351562 L 277.554688 97.460938 L 312.773438 62.242188 " fill-opacity="1" fill-rule="nonzero"/><g clip-path="url(#9a4b99b492)"><path fill="#0d292e" d="M 67.273438 170.265625 L 17.460938 170.265625 C 13.511719 170.265625 10.3125 173.46875 10.3125 177.417969 C 10.3125 181.363281 13.511719 184.566406 17.460938 184.566406 L 67.273438 184.566406 L 67.273438 170.265625 " fill-opacity="1" fill-rule="nonzero"/></g><path fill="#0d292e" d="M 62.207031 292.589844 C 59.417969 295.378906 59.417969 299.90625 62.207031 302.699219 C 65 305.488281 69.527344 305.488281 72.316406 302.699219 L 107.539062 267.476562 L 97.425781 257.371094 L 62.207031 292.589844 " fill-opacity="1" fill-rule="nonzero"/><path fill="#0d292e" d="M 97.425781 97.460938 L 107.539062 87.351562 L 72.316406 52.132812 C 69.527344 49.339844 65 49.339844 62.207031 52.132812 C 59.417969 54.925781 59.417969 59.449219 62.207031 62.242188 L 97.425781 97.460938 " fill-opacity="1" fill-rule="nonzero"/><path fill="#0d292e" d="M 186.09375 119.015625 C 185.8125 114.855469 182 111.863281 177.886719 112.546875 C 158.761719 115.734375 146.929688 125.324219 140.160156 133.292969 C 136.550781 137.542969 134.003906 141.757812 132.273438 145.203125 C 130.261719 149.191406 132.40625 154.019531 136.71875 155.179688 L 136.914062 155.230469 C 140.136719 156.101562 143.523438 154.589844 145.027344 151.609375 C 148.875 143.972656 158.640625 130.28125 180.199219 126.660156 C 183.789062 126.058594 186.351562 122.867188 186.109375 119.238281 L 186.09375 119.015625 " fill-opacity="1" fill-rule="nonzero"/><path fill="#0d292e" d="M 227.535156 309.113281 L 146.96875 309.113281 C 143.160156 309.113281 140.074219 312.308594 140.074219 316.257812 C 140.074219 320.207031 143.160156 323.410156 146.96875 323.410156 L 227.535156 323.410156 C 231.34375 323.410156 234.433594 320.207031 234.433594 316.257812 C 234.433594 312.308594 231.34375 309.113281 227.535156 309.113281 " fill-opacity="1" fill-rule="nonzero"/><path fill="#0d292e" d="M 227.535156 330.097656 L 146.96875 330.097656 C 143.160156 330.097656 140.074219 333.296875 140.074219 337.246094 C 140.074219 341.195312 143.160156 344.394531 146.96875 344.394531 L 227.535156 344.394531 C 231.34375 344.394531 234.433594 341.195312 234.433594 337.246094 C 234.433594 333.296875 231.34375 330.097656 227.535156 330.097656 " fill-opacity="1" fill-rule="nonzero"/><path fill="#0d292e" d="M 223.539062 351.085938 L 150.964844 351.085938 C 148.84375 351.085938 147.78125 353.648438 149.28125 355.144531 L 161.304688 367.171875 C 164.820312 370.6875 169.351562 373.023438 174.257812 373.804688 C 177.609375 374.335938 181.949219 374.761719 187.25 374.761719 C 192.558594 374.761719 196.894531 374.335938 200.246094 373.804688 C 205.152344 373.023438 209.683594 370.6875 213.199219 367.171875 L 225.222656 355.144531 C 226.722656 353.648438 225.660156 351.085938 223.539062 351.085938 " fill-opacity="1" fill-rule="nonzero"/></svg>